<?xml version="1.0" encoding="UTF-8" standalone="no"?>
<!DOCTYPE svg PUBLIC "-//W3C//DTD SVG 1.1//EN"
 "http://www.w3.org/Graphics/SVG/1.1/DTD/svg11.dtd">
<!-- Generated by graphviz version 2.38.0 (20140413.2041)
 -->
<!-- Title: G Pages: 1 -->
<svg width="90pt" height="127pt"
 viewBox="0.00 0.00 90.00 127.00" xmlns="http://www.w3.org/2000/svg" xmlns:xlink="http://www.w3.org/1999/xlink">
<g id="graph0" class="graph" transform="scale(1 1) rotate(0) translate(4 123)">
<title>G</title>
<polygon fill="white" stroke="none" points="-4,4 -4,-123 86,-123 86,4 -4,4"/>
<!-- apparat/dev -->
<g id="node1" class="node"><title>apparat/dev</title>
<path fill="#eeeeee" stroke="black" stroke-width="2" d="M70,-119C70,-119 12,-119 12,-119 6,-119 0,-113 0,-107 0,-107 0,-95 0,-95 0,-89 6,-83 12,-83 12,-83 70,-83 70,-83 76,-83 82,-89 82,-95 82,-95 82,-107 82,-107 82,-113 76,-119 70,-119"/>
<text text-anchor="middle" x="41" y="-97.3" font-family="Times New Roman,serif" font-size="14.00" fill="#314b5f">apparat/dev</text>
</g>
<!-- php -->
<g id="node2" class="node"><title>php</title>
<path fill="#eeeeee" stroke="black" d="M56,-36C56,-36 26,-36 26,-36 20,-36 14,-30 14,-24 14,-24 14,-12 14,-12 14,-6 20,-0 26,-0 26,-0 56,-0 56,-0 62,-0 68,-6 68,-12 68,-12 68,-24 68,-24 68,-30 62,-36 56,-36"/>
<text text-anchor="middle" x="41" y="-14.3" font-family="Times New Roman,serif" font-size="14.00" fill="#314b5f">php</text>
</g>
<!-- apparat/dev&#45;&gt;php -->
<g id="edge1" class="edge"><title>apparat/dev&#45;&gt;php</title>
<path fill="none" stroke="#1a2833" d="M41,-82.822C41,-72.1903 41,-58.306 41,-46.2035"/>
<polygon fill="#1a2833" stroke="#1a2833" points="44.5001,-46.1532 41,-36.1533 37.5001,-46.1533 44.5001,-46.1532"/>
<text text-anchor="middle" x="55.5" y="-57" font-family="Times New Roman,serif" font-size="10.00" fill="#767676">&gt;=5.6.0</text>
</g>
</g>
</svg>
